ply
format ascii 1.0
comment TextureFile util-mark6_720.jpg
comment VCGLIB generated
element vertex 12
property float x
property float y
property float z
property float nx
property float ny
property float nz
property float texture_u
property float texture_v
element face 12
property list uchar int vertex_indices
end_header
8.742277e-08 -1 0.9999999 0 -7.105427e-15 -7.105427e-15 0.000000 0.000000
3.552713e-15 0.9999999 1 0 3.552714e-15 -7.105427e-15 0.000000 1.000000
-3.552713e-15 -0.9999999 -1 0 -7.105427e-15 0 1.000000 0.000000
-8.742277e-08 1 -0.9999999 0 7.105427e-15 -7.105427e-15 1.000000 1.000000
-0.9999999 -1 -4.371139e-08 -1.058791e-22 0 0 0.000000 0.000000
-0.9999999 0.9999999 4.371138e-08 3.720085e-16 0 0 0.000000 1.000000
0.9999999 -0.9999999 -4.371138e-08 3.720085e-16 0 0 1.000000 0.000000
0.9999999 1 4.371139e-08 7.440172e-16 0 0 1.000000 1.000000
-1 0 -1 0 0 0 0.000000 0.000000
1 0 -1 0 0 0 0.000000 1.000000
-1 0 1 0 0 0 1.000000 0.000000
1 0 1 0 0 0 1.000000 1.000000
3 2 1 0 
3 2 3 1 
3 0 1 2 
3 1 3 2 
3 6 5 4 
3 6 7 5 
3 4 5 6 
3 5 7 6 
3 10 9 8 
3 10 11 9 
3 8 9 10 
3 9 11 10 
