ply
format ascii 1.0
comment VCGLIB generated
element vertex 24
property float x
property float y
property float z
property float texture_u
property float texture_v
element face 12
property list uchar int vertex_indices
end_header
500 -500 1.000044 500.000000 500.000000
500 500 0.9999565 500.000000 -500.000000
-500.0001 499.9999 0.9999565 -500.000092 -499.999908
-499.9998 -500.0002 1.000044 -499.999786 500.000214
500.0002 -499.9997 -0.9999565 500.000214 499.999695
-500 -500 -0.9999565 -500.000000 500.000000
-500.0002 499.9998 -1.000044 -500.000214 -499.999786
499.9997 500.0003 -1.000044 499.999695 -500.000305
500 -500 1.000044 500.000000 500.000000
500.0002 -499.9997 -0.9999565 500.000214 499.999695
499.9997 500.0003 -1.000044 499.999695 -500.000305
500 500 0.9999565 500.000000 -500.000000
500 500 0.9999565 500.000000 -500.000000
499.9997 500.0003 -1.000044 499.999695 -500.000305
-500.0002 499.9998 -1.000044 -500.000214 -499.999786
-500.0001 499.9999 0.9999565 -500.000092 -499.999908
-500.0001 499.9999 0.9999565 -500.000092 -499.999908
-500.0002 499.9998 -1.000044 -500.000214 -499.999786
-500 -500 -0.9999565 -500.000000 500.000000
-499.9998 -500.0002 1.000044 -499.999786 500.000214
500.0002 -499.9997 -0.9999565 500.000214 499.999695
500 -500 1.000044 500.000000 500.000000
-499.9998 -500.0002 1.000044 -499.999786 500.000214
-500 -500 -0.9999565 -500.000000 500.000000
3 0 1 2 
3 0 2 3 
3 4 5 6 
3 4 6 7 
3 8 9 10 
3 8 10 11 
3 12 13 14 
3 12 14 15 
3 16 17 18 
3 16 18 19 
3 20 21 22 
3 20 22 23 
