ply
format ascii 1.0
comment VCGLIB generated
comment TextureFile Bread.png
element vertex 215
property float x
property float y
property float z
property float nx
property float ny
property float nz
property float texture_u
property float texture_v
element face 262
property list uchar int vertex_indices
end_header
-0.294921 0.265827 0.499863 -0.9336711 0.1705947 0.3148903 0.946368 0.715229
-0.290638 0.166204 0.514952 -0.9360674 -0.2698906 0.2256922 0.942766 0.722451
-0.225607 0.229865 0.671788 -0.6619968 0.1732992 0.7291965 0.888081 0.797514
-0.214276 0.128601 0.668966 -0.6546975 -0.3339987 0.6780974 0.490713 0.103871
-0.243661 0.090871 0.518149 -0.8385465 -0.5141285 0.18031 0.465827 0.176053
-0.19778 0.082205 0.636456 -0.6513037 -0.533003 0.540103 0.504683 0.119430
-0.276543 0.121412 0.213763 -0.841387 -0.5396917 -0.02829956 0.437982 0.321736
-0.336059 0.214645 0.202533 -0.9369043 -0.3493016 -0.01410006 0.387580 0.327111
-0.353355 0.317439 0.276846 -0.9843378 0.104604 0.1419055 0.372933 0.291544
-0.075269 0.024499 0.69816 -0.1816952 -0.9805743 0.07389806 0.203883 0.530088
-0.19778 0.082205 0.636456 -0.4389888 -0.8943772 0.08589781 0.252430 0.508862
-0.071418 0.011876 0.550048 -0.1954009 -0.9802045 0.03190015 0.202357 0.479139
-0.243661 0.090871 0.518149 -0.4177255 -0.9085554 0.005700348 0.270612 0.468165
-0.276543 0.121412 0.213763 -0.4229022 -0.9045047 -0.05500029 0.283642 0.363458
-0.043591 0.009117 0.254712 -0.1719979 -0.9848881 -0.02029976 0.191330 0.377545
0.117471 0.022578 0.57446 0.04940127 -0.9985256 0.02250058 0.127506 0.487536
0.0837 0.029195 0.696543 0.03009992 -0.9975973 0.06239983 0.140889 0.529532
0.185335 0.032816 0.288107 0.09430369 -0.9955389 0.003000117 0.100614 0.389032
0.117471 0.022578 0.57446 0.6589248 -0.7275274 0.1911072 0.127506 0.487536
0.218476 0.120066 0.588806 0.8182752 -0.4889852 0.3021908 0.087481 0.492471
0.0837 0.029195 0.696543 0.3658858 -0.7123723 0.5988767 0.140889 0.529532
0.142418 0.08235 0.721042 0.5577016 -0.4484013 0.6985021 0.494035 0.779211
0.248549 0.246287 0.597283 0.8771923 0.07339935 0.4744958 0.882657 0.138179
0.167165 0.20776 0.71786 0.5742128 0.09290207 0.8134181 0.813737 0.080470
0.320537 0.278625 0.423884 0.9409421 0.06970312 0.3313148 0.943621 0.221170
0.316972 0.142889 0.306795 0.8300108 -0.5281069 0.1794023 0.940601 0.277210
0.185335 0.032816 0.288107 0.6320193 -0.7682235 0.1019031 0.100614 0.389032
0.199868 0.35239 0.598405 0.5967978 0.6168977 0.5130981 0.530293 0.762392
0.128732 0.303585 0.698313 0.3615934 0.494191 0.7905856 0.590112 0.810209
0.268146 0.400548 0.422543 0.76442 0.5357141 0.3587094 0.472878 0.678222
0.072059 0.397283 0.618593 0.07220171 0.8958212 0.4385104 0.637769 0.772054
0.038633 0.331872 0.696482 -0.03910127 0.5941193 0.803426 0.665878 0.809332
-0.343263 0.333808 0.09303 -0.9932006 0.1036001 -0.05310003 0.381480 0.379520
-0.245263 0.126836 -0.050538 -0.8103669 -0.5788764 -0.0905963 0.464471 0.448234
-0.315118 0.224966 -0.060731 -0.9215356 -0.3771145 -0.09250357 0.405315 0.453112
-0.334892 0.35265 -0.08242 -0.9857442 0.1437065 -0.08750392 0.388568 0.463492
-0.245263 0.126836 -0.050538 -0.4330767 -0.9005516 -0.03809795 0.271246 0.272540
-0.006535 0.011591 -0.014594 -0.157806 -0.9873373 -0.01620061 0.176646 0.284905
0.22659 0.036523 0.023557 0.1048973 -0.9944742 0.004199891 0.084266 0.298029
0.364463 0.293376 0.260357 0.9717004 0.1147 0.2065001 0.980819 0.299435
0.400865 0.277348 0.080426 0.9974247 -0.02250056 0.06810168 1.011647 0.385552
0.357176 0.150218 0.046872 0.8355581 -0.5487725 0.02629868 0.974649 0.401612
0.22659 0.036523 0.023557 0.6492147 -0.7600173 0.02990068 0.084266 0.298029
0.329234 0.367552 0.27494 0.8971642 0.3827847 0.2203912 0.421508 0.607578
-0.300407 0.315231 -0.345544 -0.9837408 0.01880078 -0.1786074 0.417772 0.589427
-0.27755 0.203963 -0.329475 -0.8985853 -0.4238931 -0.1133981 0.437129 0.581736
-0.206254 0.112757 -0.313886 -0.7826756 -0.6172807 -0.0798975 0.497506 0.574275
-0.008891 0.012857 -0.280002 -0.1861959 -0.9824784 -0.00819982 0.177580 0.193606
-0.206254 0.112757 -0.313886 -0.4491132 -0.8933262 -0.01630048 0.255788 0.181951
0.207828 0.033287 -0.249129 0.09689928 -0.9952926 0.001799987 0.091701 0.204226
0.207828 0.033287 -0.249129 0.6323007 -0.7735009 -0.04350005 0.091701 0.204226
0.330742 0.133868 -0.233914 0.8308075 -0.551605 -0.07410068 0.042994 0.209460
0.37929 0.255313 -0.103729 0.991945 -0.0861039 -0.09290422 0.993376 0.473691
0.35948 0.248769 -0.300258 0.9893383 -0.04740184 -0.1377053 0.976599 0.567752
-0.227109 0.275729 -0.651291 -0.9170646 0.07199722 -0.3921849 0.479845 0.735761
-0.210824 0.170286 -0.640291 -0.8693895 -0.3930952 -0.2993964 0.493636 0.730496
-0.156989 0.092061 -0.591211 -0.7670829 -0.6243861 -0.1473967 0.539226 0.707006
-0.129864 0.118296 -0.752041 -0.5968046 -0.4058031 -0.6922053 0.562197 0.783981
-0.144817 0.246725 -0.800975 -0.5445001 0.09200001 -0.8337001 0.549534 0.807401
-0.009434 0.017096 -0.530649 -0.1807967 -0.9772823 -0.110598 0.177795 0.107385
-0.156989 0.092061 -0.591211 -0.4080107 -0.9043237 -0.1254033 0.236267 0.086552
-0.129864 0.118296 -0.752041 -0.3565812 -0.9077522 -0.2209884 0.225518 0.031228
0.0072 0.070343 -0.769094 -0.1223976 -0.966781 -0.2243956 0.171203 0.025361
0.174773 0.028661 -0.528318 0.07069888 -0.9895843 -0.125398 0.104800 0.108187
0.189891 0.083353 -0.739219 0.08729885 -0.9704872 -0.224797 0.098809 0.035639
0.174773 0.028661 -0.528318 0.5987086 -0.7946115 -0.1007014 0.104800 0.108187
0.279475 0.112018 -0.563615 0.8146889 -0.5534924 -0.1729976 0.063309 0.096045
0.313262 0.221136 -0.531332 0.9792486 -0.06180307 -0.1930096 0.937460 0.678347
0.268368 0.213876 -0.729781 0.8281049 0.01380008 -0.5604033 0.899441 0.773327
0.189891 0.083353 -0.739219 0.5702273 -0.5440261 -0.6155294 0.832982 0.777844
-0.190558 0.503141 -0.382192 -0.4619905 0.8663822 -0.1895961 0.858608 0.293067
0.068012 0.539697 -0.401846 0.2744048 0.9615167 0.01370024 0.641173 0.283661
-0.133176 0.466699 -0.584613 -0.3629823 0.8450587 -0.3925808 0.810354 0.196186
0.071385 0.486876 -0.589152 0.2206851 0.8985395 -0.3793745 0.638336 0.194014
0.082713 0.392969 -0.722948 0.1316013 0.6890066 -0.7127069 0.628811 0.129977
-0.107352 0.393939 -0.713584 -0.2991121 0.6866278 -0.6626267 0.788639 0.134459
-0.200244 0.387686 -0.614649 -0.7566624 0.5097747 -0.4093797 0.866753 0.181811
-0.266239 0.426766 -0.36584 -0.8507116 0.4808065 -0.2124029 0.922249 0.300894
0.169692 0.19988 -0.809127 0.4362977 0.003599981 -0.8997952 0.555669 0.088731
0.181945 0.374625 -0.696975 0.4286005 0.6663008 -0.6102007 0.545364 0.142409
0.25003 0.357871 -0.655644 0.7721032 0.5297022 -0.3511015 0.488111 0.162190
0.066394 0.208099 -0.841539 0.07449888 0.02169967 -0.996985 0.642533 0.073218
0.0072 0.070343 -0.769094 -0.06760067 -0.4415044 -0.8947089 0.678270 0.792143
0.042814 0.210819 0.743573 -0.005299819 0.175494 0.9844663 0.662362 0.831871
-0.175581 0.29786 0.676055 -0.4694156 0.4236141 0.7747258 0.846013 0.799556
-0.14176 0.345349 0.657095 -0.2942853 0.7031649 0.6472677 0.817573 0.790482
0.002362 0.083165 0.746839 -0.08050239 -0.2803083 0.9565284 0.674173 0.066600
-0.075269 0.024499 0.69816 -0.3709895 -0.2509929 0.8940746 0.583797 0.769431
-0.282154 0.442149 -0.200201 -0.7343128 0.6766118 0.05460095 0.935632 0.380170
-0.197289 0.511395 -0.270477 -0.3270906 0.935373 0.1344961 0.864268 0.346535
-0.308256 0.434733 0.158259 -0.7525283 0.6360239 0.1708064 0.957581 0.551733
-0.301397 0.449488 0.050128 -0.827989 0.5604926 -0.01679978 0.951813 0.499981
-0.29122 0.452484 -0.060839 -0.8020211 0.5836154 -0.1271034 0.943256 0.446870
-0.203468 0.52964 -0.092167 -0.431701 0.8695021 -0.2400006 0.869464 0.431876
-0.209117 0.53298 -0.001009 -0.409004 0.912309 0.0202002 0.874214 0.475506
-0.215144 0.520345 0.09037 -0.31811 0.9090285 0.2692085 0.879282 0.519241
0.094839 0.574414 -0.10011 0.2015067 0.9793326 -0.01740058 0.618614 0.428075
0.10188 0.566666 -0.024553 0.3213019 0.9050054 0.2788017 0.612692 0.464237
0.085443 0.565547 -0.173859 0.0515012 0.9481221 -0.3137073 0.626515 0.392778
0.288981 0.450655 -0.29941 0.6677144 0.7239157 -0.1735038 0.455357 0.332688
0.30273 0.449421 -0.222844 0.7722566 0.6350642 0.017699 0.443795 0.369333
0.271822 0.441427 -0.372376 0.4335879 0.8053775 -0.4041887 0.469786 0.297765
0.34115 0.351953 -0.301229 0.9491931 0.3047978 -0.07829943 0.411487 0.331817
0.319676 0.346709 -0.420928 0.9190848 0.3291946 -0.2165964 0.429545 0.274528
0.293244 0.337484 -0.526949 0.7266885 0.566291 -0.3888938 0.451772 0.223785
-0.223064 0.339376 0.579406 -0.5442897 0.5919888 0.5943887 0.885943 0.753299
-0.265227 0.374735 0.457835 -0.7523721 0.5514796 0.3602867 0.921398 0.695114
-0.300386 0.402689 0.319795 -0.7781131 0.58841 0.2198037 0.950963 0.629046
-0.218406 0.484519 0.296549 -0.4638062 0.8820118 0.08330111 0.882026 0.617920
-0.19392 0.462533 0.405384 -0.3994845 0.8553669 0.3297872 0.861434 0.670010
-0.165776 0.425526 0.509866 -0.2166091 0.8051339 0.5521232 0.837768 0.720016
0.073716 0.541779 0.288372 0.1478998 0.962599 0.2269998 0.636376 0.614007
0.082318 0.514249 0.366274 0.3001962 0.8067898 0.5088935 0.629142 0.651292
0.315899 0.466101 0.085931 0.6007978 0.799297 -0.01289995 0.432721 0.517116
0.320446 0.45686 0.154074 0.6877728 0.6625738 0.2965883 0.428897 0.549730
0.062499 0.553115 0.214406 0.02779863 0.9977508 -0.06099699 0.645809 0.578606
0.305144 0.465398 0.019837 0.4729969 0.8536944 -0.2178986 0.441765 0.485483
0.379403 0.375091 0.076443 0.9205327 0.3810135 0.08630306 0.379319 0.512575
0.371444 0.374739 -0.022647 0.9052356 0.407316 -0.1210048 0.386013 0.465149
0.355159 0.369072 -0.115597 0.7789768 0.5671831 -0.267392 0.399706 0.420662
-0.282595 0.443489 -0.104618 -0.7618124 0.5954097 -0.2552042 0.309650 0.641218
-0.260879 0.44547 -0.164822 -0.6862191 0.684819 -0.2452068 0.273232 0.653782
-0.308504 0.397778 -0.11062 -0.8192285 0.5010174 -0.2790097 0.306020 0.626919
-0.201338 0.51011 -0.127345 -0.4617171 0.8472314 -0.2627097 0.295902 0.686432
-0.188002 0.489711 -0.215153 -0.3252978 0.9089939 -0.2605983 0.242787 0.694598
0.078391 0.545033 -0.202556 -0.06999744 0.9478653 -0.3108886 0.250404 0.842055
0.08011 0.507127 -0.316753 0.09699942 0.9464943 -0.3077981 0.181326 0.844021
0.260872 0.427673 -0.393875 0.4093817 0.8771609 -0.2509888 0.134673 0.944838
0.24763 0.399643 -0.513434 0.7480257 0.6122211 -0.2562088 0.062352 0.938563
0.275043 0.340078 -0.538148 0.7986812 0.5039881 -0.3287923 0.047403 0.953967
0.261056 0.294768 -0.631325 0.7790035 0.5099023 -0.3649016 -0.008961 0.947046
-0.301784 0.405632 0.269578 -0.7410702 0.6622733 0.1104955 0.302681 0.596385
-0.295056 0.424234 0.203217 -0.6711025 0.7342027 0.1028004 0.262920 0.603245
-0.332509 0.365008 0.253663 -0.8099424 0.5809305 0.08070423 0.291785 0.580180
-0.219302 0.477951 0.257337 -0.4367072 0.8970148 0.06820112 0.298766 0.642495
-0.214981 0.48936 0.149123 -0.2789058 0.9561199 0.08970186 0.233648 0.650009
0.057332 0.543815 0.187665 -0.1180962 0.985368 -0.122896 0.268366 0.798496
0.09439 0.531124 0.042161 0.253202 0.9674078 -0.003300027 0.182123 0.825849
0.291299 0.456237 -0.013007 0.4172958 0.9050909 -0.08169918 0.157120 0.937155
0.292578 0.4442 -0.149575 0.7945901 0.6058924 -0.03899951 0.074764 0.944334
0.336104 0.374202 -0.137613 0.8193846 0.5609894 -0.1178978 0.083814 0.967793
0.326588 0.3709 -0.219453 0.9118214 0.3962093 -0.1077025 0.034029 0.966419
0.345262 0.309551 -0.243794 0.934947 0.3330811 -0.1221931 0.020126 0.977881
0.08076 0.455721 0.418234 0.3683827 0.8329609 0.4128806 0.186303 0.771795
-0.146312 0.369014 0.56785 -0.110298 0.9233829 0.3676932 0.253266 0.633223
0.063969 0.41619 0.512471 0.0624023 0.9390346 0.3381124 0.240897 0.753328
0.296745 0.423916 0.20539 0.6877556 0.6867557 0.2352848 0.080513 0.910573
0.329234 0.367552 0.27494 0.5993059 0.7751075 0.2001019 0.125219 0.921409
0.268146 0.400548 0.422543 -0.0260011 0.9732413 -0.2283097 0.207307 0.873520
0.355917 0.330392 0.167249 0.8500351 0.5259217 0.0291012 0.063569 0.946600
-0.201338 0.51011 -0.127345 -0.4464774 0.769661 -0.4563769 0.867673 0.415040
0.078391 0.545033 -0.202556 -0.1369974 0.8221843 -0.5524895 0.632445 0.379043
-0.282595 0.443489 -0.104618 -0.7561323 0.5896252 -0.2839122 0.936003 0.425917
-0.308504 0.397778 -0.11062 -0.8623316 0.2528093 -0.4387161 0.957790 0.423044
-0.260879 0.44547 -0.164822 -0.5438245 0.8116366 0.2133096 0.917741 0.397103
-0.188002 0.489711 -0.215153 -0.2054049 0.9094218 0.3616087 0.856458 0.373014
0.08011 0.507127 -0.316753 0.3192851 0.8991579 0.299286 0.630999 0.324387
0.24763 0.399643 -0.513434 0.6277053 0.7601064 -0.1680014 0.490129 0.230253
0.261056 0.294768 -0.631325 0.9173757 0.340691 -0.2057946 0.478839 0.173829
0.275043 0.340078 -0.538148 0.4291932 0.7632878 -0.4828923 0.467078 0.218425
0.260872 0.427673 -0.393875 0.03709872 0.8371713 -0.5456813 0.478994 0.287476
-0.219302 0.477951 0.257337 -0.4730035 0.8701065 -0.138501 0.882779 0.599153
-0.301784 0.405632 0.269578 -0.754594 0.6547948 0.04279966 0.952139 0.605011
-0.332509 0.365008 0.253663 -0.9214224 0.329208 -0.206405 0.977976 0.597395
-0.295056 0.424234 0.203217 -0.6344892 0.699888 0.3279944 0.946481 0.573251
-0.214981 0.48936 0.149123 -0.275504 0.8556125 0.4382064 0.879145 0.547361
0.09439 0.531124 0.042161 0.2688067 0.8375209 0.4757119 0.618991 0.496167
0.292578 0.4442 -0.149575 0.7232193 0.6694179 0.1698045 0.452332 0.404400
0.326588 0.3709 -0.219453 0.9526694 0.281091 0.1157963 0.423733 0.370956
0.345262 0.309551 -0.243794 0.961727 0.2733077 -0.01960055 0.408029 0.359306
0.336104 0.374202 -0.137613 0.6286752 0.6880728 -0.3623857 0.415731 0.410125
0.291299 0.456237 -0.013007 0.33518 0.8644484 -0.3746777 0.453408 0.469763
0.057332 0.543815 0.187665 -0.08409876 0.946486 -0.3115954 0.650154 0.565807
-0.184909 0.320606 0.603662 -0.4529097 0.6978149 0.5549119 0.853858 0.764908
-0.146312 0.369014 0.56785 -0.3326099 0.9072269 0.2575076 0.821401 0.747768
-0.146312 0.369014 0.56785 -0.04899993 0.702799 0.709699 0.821401 0.747768
0.08076 0.455721 0.418234 0.3568108 0.6224188 0.6966211 0.630453 0.676160
0.296745 0.423916 0.20539 0.7084878 0.3998931 0.5814899 0.448828 0.574291
0.355917 0.330392 0.167249 0.8875216 0.3858094 0.2519061 0.399069 0.556036
0.063969 0.41619 0.512471 0.007400348 0.9830462 0.1832086 0.644572 0.721263
-0.225607 0.229865 0.671788 -0.6619968 0.1732992 0.7291965 0.481116 0.102520
-0.290638 0.166204 0.514952 -0.9360674 -0.2698906 0.2256922 0.426045 0.177583
-0.294921 0.265827 0.499863 -0.9336711 0.1705947 0.3148903 0.422418 0.184805
0.0837 0.029195 0.696543 0.3658858 -0.7123723 0.5988767 0.518106 0.772153
0.218476 0.120066 0.588806 0.8182752 -0.4889852 0.3021908 0.462855 0.741115
0.218476 0.120066 0.588806 0.8182752 -0.4889852 0.3021908 0.857190 0.142236
0.142418 0.08235 0.721042 0.5577016 -0.4484013 0.6985021 0.792780 0.078947
0.316972 0.142889 0.306795 0.8300108 -0.5281069 0.1794023 0.048451 0.395461
0.248549 0.246287 0.597283 0.8771923 0.07339935 0.4744958 0.489357 0.761855
0.167165 0.20776 0.71786 0.5742128 0.09290207 0.8134181 0.557794 0.819564
0.320537 0.278625 0.423884 0.9409421 0.06970312 0.3313148 0.428821 0.678864
0.357176 0.150218 0.046872 0.8355581 -0.5487725 0.02629868 0.032519 0.306049
0.364463 0.293376 0.260357 0.9717004 0.1147 0.2065001 0.391883 0.600598
0.330742 0.133868 -0.233914 0.8308075 -0.551605 -0.07410068 0.952262 0.535999
0.279475 0.112018 -0.563615 0.8146889 -0.5534924 -0.1729976 0.908847 0.693798
0.189891 0.083353 -0.739219 0.5702273 -0.5440261 -0.6155294 0.098809 0.035639
-0.227109 0.275729 -0.651291 -0.9170646 0.07199722 -0.3921849 0.889344 0.164273
-0.300407 0.315231 -0.345544 -0.9837408 0.01880078 -0.1786074 0.950981 0.310607
-0.144817 0.246725 -0.800975 -0.5445001 0.09200001 -0.8337001 0.820143 0.092633
0.268368 0.213876 -0.729781 0.8281049 0.01380008 -0.5604033 0.472690 0.126707
0.169692 0.19988 -0.809127 0.4362977 0.003599981 -0.8997952 0.815877 0.811303
0.066394 0.208099 -0.841539 0.07449888 0.02169967 -0.996985 0.728399 0.826816
0.002362 0.083165 0.746839 -0.08050239 -0.2803083 0.9565284 0.580055 0.831768
-0.19778 0.082205 0.636456 -0.6513037 -0.533003 0.540103 0.618748 0.782795
0.002362 0.083165 0.746839 -0.08050239 -0.2803083 0.9565284 0.696378 0.833434
0.0837 0.029195 0.696543 0.3658858 -0.7123723 0.5988767 0.532260 0.805630
0.042814 0.210819 0.743573 -0.005299819 0.175494 0.9844663 0.708430 0.068163
0.002362 0.083165 0.746839 -0.08050239 -0.2803083 0.9565284 0.551450 0.786642
-0.334892 0.35265 -0.08242 -0.9857442 0.1437065 -0.08750392 0.979980 0.436541
-0.353355 0.317439 0.276846 -0.9843378 0.104604 0.1419055 0.995506 0.608490
-0.343263 0.333808 0.09303 -0.9932006 0.1036001 -0.05310003 0.987019 0.520514
0.313262 0.221136 -0.531332 0.9792486 -0.06180307 -0.1930096 0.434938 0.221687
0.35948 0.248769 -0.300258 0.9893383 -0.04740184 -0.1377053 0.396074 0.332282
0.37929 0.255313 -0.103729 0.991945 -0.0861039 -0.09290422 0.379415 0.426343
0.400865 0.277348 0.080426 0.9974247 -0.02250056 0.06810168 0.361272 0.514481
3 0 1 2 
3 3 180 181 
3 181 4 3 
3 5 3 4 
3 4 181 6 
3 7 6 181 
3 181 182 7 
3 8 7 182 
3 9 10 11 
3 12 11 10 
3 12 13 11 
3 14 11 13 
3 11 15 9 
3 16 9 15 
3 15 11 17 
3 14 17 11 
3 18 19 20 
3 21 183 184 
3 185 22 186 
3 23 186 22 
3 22 185 24 
3 25 24 185 
3 19 18 187 
3 26 187 18 
3 188 27 189 
3 28 189 27 
3 27 188 29 
3 190 29 188 
3 27 30 28 
3 31 28 30 
3 27 29 30 
3 7 8 32 
3 6 7 33 
3 34 33 7 
3 7 32 34 
3 35 34 32 
3 13 36 14 
3 37 14 36 
3 17 14 38 
3 37 38 14 
3 24 25 39 
3 39 25 40 
3 41 40 25 
3 187 26 191 
3 42 191 26 
3 43 29 192 
3 190 192 29 
3 44 45 35 
3 34 35 45 
3 45 46 34 
3 33 34 46 
3 37 36 47 
3 48 47 36 
3 47 49 37 
3 38 37 49 
3 50 51 42 
3 191 42 51 
3 193 52 41 
3 40 41 52 
3 193 53 52 
3 54 55 44 
3 45 44 55 
3 55 56 45 
3 46 45 56 
3 55 57 56 
3 55 54 57 
3 58 57 54 
3 47 48 59 
3 60 59 48 
3 60 61 59 
3 62 59 61 
3 59 63 47 
3 49 47 63 
3 63 59 64 
3 62 64 59 
3 65 66 50 
3 51 50 66 
3 194 67 193 
3 53 193 67 
3 67 194 68 
3 69 68 194 
3 65 195 66 
3 70 71 72 
3 73 72 71 
3 73 74 72 
3 75 72 74 
3 72 76 70 
3 77 70 76 
3 76 196 77 
3 197 77 196 
3 196 76 198 
3 75 198 76 
3 72 75 76 
3 78 79 199 
3 80 199 79 
3 79 78 74 
3 81 74 78 
3 198 75 81 
3 74 81 75 
3 68 69 200 
3 200 69 201 
3 82 201 69 
3 58 201 57 
3 82 57 201 
3 83 28 31 
3 31 30 84 
3 85 84 30 
3 83 31 2 
3 84 2 31 
3 3 5 86 
3 87 202 203 
3 83 2 204 
3 3 86 180 
3 202 87 205 
3 206 86 23 
3 186 23 86 
3 183 21 207 
3 88 77 208 
3 197 208 77 
3 77 88 70 
3 89 70 88 
3 71 70 89 
3 73 71 79 
3 80 79 71 
3 74 73 79 
3 90 91 209 
3 210 209 91 
3 91 92 210 
3 208 210 92 
3 92 91 93 
3 94 93 91 
3 91 90 94 
3 95 94 90 
3 94 95 96 
3 97 96 95 
3 93 94 98 
3 96 98 94 
3 96 97 99 
3 100 99 97 
3 98 96 101 
3 99 101 96 
3 102 103 100 
3 99 100 103 
3 103 104 99 
3 101 99 104 
3 104 103 199 
3 211 199 103 
3 103 102 211 
3 212 211 102 
3 105 106 2 
3 0 2 106 
3 106 107 0 
3 209 0 107 
3 107 106 108 
3 109 108 106 
3 106 105 109 
3 110 109 105 
3 111 112 113 
3 114 113 112 
3 115 111 116 
3 113 116 111 
3 117 118 114 
3 113 114 118 
3 118 119 113 
3 116 113 119 
3 119 118 212 
3 213 212 118 
3 118 117 213 
3 214 213 117 
3 120 121 122 
3 120 123 121 
3 124 121 123 
3 125 126 123 
3 124 123 126 
3 127 128 125 
3 126 125 128 
3 129 128 127 
3 130 128 129 
3 131 132 133 
3 131 134 132 
3 135 132 134 
3 136 137 134 
3 135 134 137 
3 138 139 136 
3 137 136 139 
3 140 141 138 
3 139 138 141 
3 140 142 141 
3 143 144 145 
3 146 143 147 
3 145 147 143 
3 145 148 147 
3 146 147 149 
3 93 98 150 
3 151 150 98 
3 150 152 93 
3 92 93 152 
3 152 153 92 
3 208 92 153 
3 153 154 208 
3 88 208 154 
3 154 155 88 
3 89 88 155 
3 71 89 156 
3 155 156 89 
3 80 71 157 
3 156 157 71 
3 158 80 157 
3 199 80 158 
3 158 159 199 
3 104 199 159 
3 159 160 104 
3 101 104 160 
3 98 101 151 
3 160 151 101 
3 161 162 108 
3 107 108 162 
3 162 163 107 
3 209 107 163 
3 163 164 209 
3 90 209 164 
3 164 165 90 
3 95 90 165 
3 97 95 166 
3 165 166 95 
3 100 97 167 
3 166 167 97 
3 167 168 100 
3 102 100 168 
3 168 169 102 
3 212 102 169 
3 169 170 212 
3 119 212 170 
3 170 171 119 
3 116 119 171 
3 115 116 172 
3 171 172 116 
3 108 115 161 
3 172 161 115 
3 84 85 173 
3 174 173 85 
3 2 84 173 
3 105 2 173 
3 110 105 175 
3 173 175 105 
3 112 110 176 
3 175 176 110 
3 114 112 177 
3 176 177 112 
3 117 114 178 
3 177 178 114 
3 214 117 178 
3 43 192 178 
3 30 29 179 
3 174 85 179 
3 30 179 85 
3 110 112 109 
3 111 109 112 
3 115 108 111 
3 109 111 108 
3 189 28 83 
3 214 178 192 
