ply
format ascii 1.0
comment VCGLIB generated
element vertex 192
property float x
property float y
property float z
property float nx
property float ny
property float nz
property float texture_u
property float texture_v
element face 96
property list uchar int vertex_indices
end_header
84.90881 24.99999 50 -0.9999998 0 -0 0.567164 0.687500
84.90881 34.99999 50 -0.9999998 0 -0 0.597015 0.687500
84.90881 35.00001 -50 -0.9999998 0 -0 0.597015 1.000000
84.90881 25.00001 -50 -0.9999998 0 0 0.567164 1.000000
94.90881 24.99999 50 0 -1.311342e-07 1 0.686567 0.718750
94.90881 34.99999 50 0 -1.311342e-07 1 0.686567 0.687500
84.90881 34.99999 50 0 -1.311342e-07 1 0.716418 0.687500
84.90881 24.99999 50 0 -1.311342e-07 1 0.716418 0.718750
94.90881 25.00001 -50 0.9999998 0 0 0.059702 0.687500
94.90881 35.00001 -50 0.9999998 0 0 0.089552 0.687500
94.90881 34.99999 50 0.9999998 0 0 0.089552 1.000000
94.90881 24.99999 50 0.9999998 0 0 0.059702 1.000000
84.90881 25.00001 -50 0 1.311342e-07 -1 0.686567 0.781250
84.90881 35.00001 -50 0 1.311342e-07 -1 0.686567 0.812500
94.90881 35.00001 -50 0 1.311342e-07 -1 0.656717 0.812500
94.90881 25.00001 -50 0 1.311342e-07 -1 0.656717 0.781250
84.90881 34.99999 50 0 1 1.311342e-07 0.477612 1.000000
94.90881 34.99999 50 0 1 1.311342e-07 0.447761 1.000000
94.90881 35.00001 -50 0 1 1.311342e-07 0.447761 0.687500
84.90881 35.00001 -50 0 1 1.311342e-07 0.477612 0.687500
84.90881 24.99999 50 0 -1 -1.311342e-07 0.149254 1.000000
84.90881 25.00001 -50 0 -1 -1.311342e-07 0.149254 0.687500
94.90881 24.99999 50 0 -1 -1.311342e-07 0.179105 1.000000
94.90881 25.00001 -50 0 -1 -1.311342e-07 0.179105 0.687500
-94.41402 24.99999 50 -0.9999998 0 -0 0.597015 0.687500
-94.41402 34.99999 50 -0.9999998 0 -0 0.626866 0.687500
-94.41402 35.00001 -50 -0.9999998 0 -0 0.626866 1.000000
-94.41402 25.00001 -50 -0.9999998 -0 0 0.597015 1.000000
-84.41402 24.99999 50 0 -1.311342e-07 1 0.626866 0.812500
-84.41402 34.99999 50 0 -1.311342e-07 1 0.626866 0.781250
-94.41402 34.99999 50 0 -1.311342e-07 1 0.656717 0.781250
-94.41402 24.99999 50 0 -1.311342e-07 1 0.656717 0.812500
-84.41402 25.00001 -50 0.9999998 0 0 0.895522 0.562500
-84.41402 35.00001 -50 0.9999998 0 0 0.925373 0.562500
-84.41402 34.99999 50 0.9999998 0 0 0.925373 0.875000
-84.41402 24.99999 50 0.9999998 0 0 0.895522 0.875000
-94.41402 25.00001 -50 0 1.311342e-07 -1 0.746269 0.750000
-94.41402 35.00001 -50 0 1.311342e-07 -1 0.746269 0.781250
-84.41402 35.00001 -50 0 1.311342e-07 -1 0.716418 0.781250
-84.41402 25.00001 -50 0 1.311342e-07 -1 0.716418 0.750000
-94.41402 34.99999 50 0 1 1.311342e-07 0.029851 1.000000
-84.41402 34.99999 50 0 1 1.311342e-07 0.000000 1.000000
-84.41402 35.00001 -50 0 1 1.311342e-07 0.000000 0.687500
-94.41402 35.00001 -50 0 1 1.311342e-07 0.029851 0.687500
-84.41402 24.99999 50 0 -1 -1.311342e-07 0.208955 1.000000
-94.41402 24.99999 50 0 -1 -1.311342e-07 0.179105 1.000000
-94.41402 25.00001 -50 0 -1 -1.311342e-07 0.179105 0.687500
-84.41402 25.00001 -50 0 -1 -1.311342e-07 0.208955 0.687500
-89.99998 25 5.000007 -0.9999998 0 -0 0.686567 0.687500
-89.99998 35 5.000008 -0.9999998 0 -0 0.686567 0.718750
-89.99998 35 -4.999992 -0.9999998 0 -0 0.656716 0.718750
-89.99998 25 -4.999993 -0.9999998 -0 0 0.656716 0.687500
89.99998 25 4.999999 0 -1.311342e-07 1 0.865671 0.562500
89.99998 35 5 0 -1.311342e-07 1 0.835820 0.562500
-89.99998 35 5.000008 0 -1.311342e-07 1 0.835820 0.000000
-89.99998 25 5.000007 0 -1.311342e-07 1 0.865671 0.000000
89.99998 25 -5.000001 0.9999998 0 0 0.686567 0.781250
89.99998 35 -5 0.9999998 0 0 0.686567 0.750000
89.99998 35 5 0.9999998 0 0 0.716418 0.750000
89.99998 25 4.999999 0.9999998 0 0 0.716418 0.781250
-89.99998 25 -4.999993 0 1.311342e-07 -1 0.865671 0.000000
-89.99998 35 -4.999992 0 1.311342e-07 -1 0.895522 0.000000
89.99998 35 -5 0 1.311342e-07 -1 0.895522 0.562500
89.99998 25 -5.000001 0 1.311342e-07 -1 0.865671 0.562500
-89.99998 35 5.000008 0 1 1.311342e-07 0.925373 0.000000
89.99998 35 5 0 1 1.311342e-07 0.925373 0.562500
89.99998 35 -5 0 1 1.311342e-07 0.895522 0.562500
-89.99998 35 -4.999992 0 1 1.311342e-07 0.895522 0.000000
89.99998 25 4.999999 0 -1 -1.311342e-07 0.955224 0.000000
-89.99998 25 5.000007 0 -1 -1.311342e-07 0.955224 0.562500
-89.99998 25 -4.999993 0 -1 -1.311342e-07 0.925373 0.562500
89.99998 25 -5.000001 0 -1 -1.311342e-07 0.925373 0.000000
-110 47.51757 70.00001 -0.9999998 0 -0 0.985075 0.000000
-110 52.51757 70.00001 -0.9999998 0 -0 1.000000 0.000000
-110 52.51759 -69.99999 -0.9999998 0 -0 1.000000 0.437500
-110 47.51759 -69.99999 -0.9999998 -0 0 0.985075 0.437500
110 47.51759 -70.00001 0.9999998 0 0 0.925373 0.562500
110 52.51759 -70.00001 0.9999998 0 0 0.940298 0.562500
110 52.51757 69.99999 0.9999998 0 0 0.940298 1.000000
110 47.51757 69.99999 0.9999998 0 0 0.925373 1.000000
-110 52.51757 70.00001 0 1 1.311342e-07 0.000000 0.687500
110 52.51757 69.99999 0 1 1.311342e-07 0.000000 0.000000
110 52.51759 -70.00001 0 1 1.311342e-07 0.417910 0.000000
-110 52.51759 -69.99999 0 1 1.311342e-07 0.417910 0.687500
110 47.51757 69.99999 0 -1 -1.311342e-07 0.835820 0.000000
-110 47.51757 70.00001 0 -1 -1.311342e-07 0.835820 0.687500
-110 47.51759 -69.99999 0 -1 -1.311342e-07 0.417910 0.687500
110 47.51759 -70.00001 0 -1 -1.311342e-07 0.417910 0.000000
110 47.51757 69.99999 0 -1.311342e-07 1 0.970149 0.687500
110 52.51757 69.99999 0 -1.311342e-07 1 0.955224 0.687500
-110 52.51757 70.00001 0 -1.311342e-07 1 0.955224 0.000000
-110 47.51757 70.00001 0 -1.311342e-07 1 0.970149 0.000000
-110 47.51759 -69.99999 0 1.311342e-07 -1 0.970149 0.000000
-110 52.51759 -69.99999 0 1.311342e-07 -1 0.985074 0.000000
110 52.51759 -70.00001 0 1.311342e-07 -1 0.985075 0.687500
110 47.51759 -70.00001 0 1.311342e-07 -1 0.970149 0.687500
-94.99998 -49.99999 -50.00001 -0.9999998 0 -0 0.059702 0.687500
-94.99998 50.00001 -49.99999 -0.9999998 0 -0 0.059702 1.000000
-94.99998 50.00001 -59.99999 -0.9999998 0 -0 0.029851 1.000000
-94.99998 -49.99999 -60.00001 -0.9999998 -0 0 0.029851 0.687500
-84.99998 -49.99999 -50.00001 0 -1.311342e-07 1 0.238806 1.000000
-84.99998 50.00001 -49.99999 0 -1.311342e-07 1 0.238806 0.687500
-94.99998 50.00001 -49.99999 0 -1.311342e-07 1 0.268657 0.687500
-94.99998 -49.99999 -50.00001 0 -1.311342e-07 1 0.268657 1.000000
-84.99998 -49.99999 -60.00001 0.9999998 0 0 0.507463 1.000000
-84.99998 50.00001 -59.99999 0.9999998 0 0 0.507463 0.687500
-84.99998 50.00001 -49.99999 0.9999998 0 0 0.537314 0.687500
-84.99998 -49.99999 -50.00001 0.9999998 0 0 0.537314 1.000000
-94.99998 -49.99999 -60.00001 0 1.311342e-07 -1 0.358209 0.687500
-94.99998 50.00001 -59.99999 0 1.311342e-07 -1 0.358209 1.000000
-84.99998 50.00001 -59.99999 0 1.311342e-07 -1 0.328358 1.000000
-84.99998 -49.99999 -60.00001 0 1.311342e-07 -1 0.328358 0.687500
-94.99998 50.00001 -49.99999 0 1 1.311342e-07 0.656716 0.718750
-84.99998 50.00001 -49.99999 0 1 1.311342e-07 0.656716 0.750000
-84.99998 50.00001 -59.99999 0 1 1.311342e-07 0.626866 0.750000
-94.99998 50.00001 -59.99999 0 1 1.311342e-07 0.626866 0.718750
-84.99998 -49.99999 -50.00001 0 -1 -1.311342e-07 0.686567 0.781250
-94.99998 -49.99999 -50.00001 0 -1 -1.311342e-07 0.656717 0.781250
-94.99998 -49.99999 -60.00001 0 -1 -1.311342e-07 0.656717 0.750000
-84.99998 -49.99999 -60.00001 0 -1 -1.311342e-07 0.686567 0.750000
-94.99998 -50.00001 59.99999 -0.9999998 0 -0 0.865671 0.562500
-94.99998 49.99999 60.00001 -0.9999998 0 -0 0.865671 0.875000
-94.99998 49.99999 50.00001 -0.9999998 0 -0 0.835820 0.875000
-94.99998 -50.00001 49.99999 -0.9999998 -0 0 0.835820 0.562500
-84.99998 -50.00001 59.99999 0 -1.311342e-07 1 0.298508 1.000000
-84.99998 49.99999 60.00001 0 -1.311342e-07 1 0.298508 0.687500
-94.99998 49.99999 60.00001 0 -1.311342e-07 1 0.328358 0.687500
-94.99998 -50.00001 59.99999 0 -1.311342e-07 1 0.328358 1.000000
-84.99998 -50.00001 49.99999 0.9999998 0 0 0.477612 1.000000
-84.99998 49.99999 50.00001 0.9999998 0 0 0.477612 0.687500
-84.99998 49.99999 60.00001 0.9999998 0 0 0.507463 0.687500
-84.99998 -50.00001 59.99999 0.9999998 0 0 0.507463 1.000000
-94.99998 -50.00001 49.99999 0 1.311342e-07 -1 0.298508 0.687500
-94.99998 49.99999 50.00001 0 1.311342e-07 -1 0.298508 1.000000
-84.99998 49.99999 50.00001 0 1.311342e-07 -1 0.268657 1.000000
-84.99998 -50.00001 49.99999 0 1.311342e-07 -1 0.268657 0.687500
-94.99998 49.99999 60.00001 0 1 1.311342e-07 0.746269 0.750000
-84.99998 49.99999 60.00001 0 1 1.311342e-07 0.716418 0.750000
-84.99998 49.99999 50.00001 0 1 1.311342e-07 0.716418 0.718750
-94.99998 49.99999 50.00001 0 1 1.311342e-07 0.746269 0.718750
-84.99998 -50.00001 59.99999 0 -1 -1.311342e-07 0.716418 0.750000
-94.99998 -50.00001 59.99999 0 -1 -1.311342e-07 0.686567 0.750000
-94.99998 -50.00001 49.99999 0 -1 -1.311342e-07 0.686567 0.718750
-84.99998 -50.00001 49.99999 0 -1 -1.311342e-07 0.716418 0.718750
84.99998 -49.99999 -50.00001 -0.9999998 0 -0 0.895522 0.562500
84.99998 50.00001 -49.99999 -0.9999998 0 -0 0.895522 0.875000
84.99998 50.00001 -59.99999 -0.9999998 0 -0 0.865671 0.875000
84.99998 -49.99999 -60.00001 -0.9999998 -0 0 0.865671 0.562500
94.99998 -49.99999 -50.00001 0 -1.311342e-07 1 0.417911 1.000000
94.99998 50.00001 -49.99999 0 -1.311342e-07 1 0.417911 0.687500
84.99998 50.00001 -49.99999 0 -1.311342e-07 1 0.447761 0.687500
84.99998 -49.99999 -50.00001 0 -1.311342e-07 1 0.447761 1.000000
94.99998 -49.99999 -60.00001 0.9999998 0 0 0.119403 1.000000
94.99998 50.00001 -59.99999 0.9999998 0 0 0.119403 0.687500
94.99998 50.00001 -49.99999 0.9999998 0 0 0.149254 0.687500
94.99998 -49.99999 -50.00001 0.9999998 0 0 0.149254 1.000000
84.99998 -49.99999 -60.00001 0 1.311342e-07 -1 0.238806 0.687500
84.99998 50.00001 -59.99999 0 1.311342e-07 -1 0.238806 1.000000
94.99998 50.00001 -59.99999 0 1.311342e-07 -1 0.208955 1.000000
94.99998 -49.99999 -60.00001 0 1.311342e-07 -1 0.208955 0.687500
84.99998 50.00001 -49.99999 0 1 1.311342e-07 0.686567 0.718750
94.99998 50.00001 -49.99999 0 1 1.311342e-07 0.686567 0.750000
94.99998 50.00001 -59.99999 0 1 1.311342e-07 0.656716 0.750000
84.99998 50.00001 -59.99999 0 1 1.311342e-07 0.656716 0.718750
94.99998 -49.99999 -50.00001 0 -1 -1.311342e-07 0.746269 0.718750
84.99998 -49.99999 -50.00001 0 -1 -1.311342e-07 0.716418 0.718750
84.99998 -49.99999 -60.00001 0 -1 -1.311342e-07 0.716418 0.687500
94.99998 -49.99999 -60.00001 0 -1 -1.311342e-07 0.746269 0.687500
84.99998 -50.00001 59.99999 -0.9999998 0 -0 0.567164 0.687500
84.99998 49.99999 60.00001 -0.9999998 0 -0 0.567164 1.000000
84.99998 49.99999 50.00001 -0.9999998 0 -0 0.537314 1.000000
84.99998 -50.00001 49.99999 -0.9999998 -0 0 0.537314 0.687500
94.99998 -50.00001 59.99999 0 -1.311342e-07 1 0.388060 1.000000
94.99998 49.99999 60.00001 0 -1.311342e-07 1 0.388060 0.687500
84.99998 49.99999 60.00001 0 -1.311342e-07 1 0.417911 0.687500
84.99998 -50.00001 59.99999 0 -1.311342e-07 1 0.417911 1.000000
94.99998 -50.00001 49.99999 0.9999998 0 0 0.089552 1.000000
94.99998 49.99999 50.00001 0.9999998 0 0 0.089552 0.687500
94.99998 49.99999 60.00001 0.9999998 0 0 0.119403 0.687500
94.99998 -50.00001 59.99999 0.9999998 0 0 0.119403 1.000000
84.99998 -50.00001 49.99999 0 1.311342e-07 -1 0.388060 0.687500
84.99998 49.99999 50.00001 0 1.311342e-07 -1 0.388060 1.000000
94.99998 49.99999 50.00001 0 1.311342e-07 -1 0.358209 1.000000
94.99998 -50.00001 49.99999 0 1.311342e-07 -1 0.358209 0.687500
84.99998 49.99999 60.00001 0 1 1.311342e-07 0.626866 0.718750
94.99998 49.99999 60.00001 0 1 1.311342e-07 0.626866 0.687500
94.99998 49.99999 50.00001 0 1 1.311342e-07 0.656716 0.687500
84.99998 49.99999 50.00001 0 1 1.311342e-07 0.656716 0.718750
94.99998 -50.00001 59.99999 0 -1 -1.311342e-07 0.656717 0.781250
84.99998 -50.00001 59.99999 0 -1 -1.311342e-07 0.626866 0.781250
84.99998 -50.00001 49.99999 0 -1 -1.311342e-07 0.626866 0.750000
94.99998 -50.00001 49.99999 0 -1 -1.311342e-07 0.656717 0.750000
3 0 1 2 
3 2 3 0 
3 4 5 6 
3 4 6 7 
3 8 9 10 
3 8 10 11 
3 12 13 14 
3 12 14 15 
3 16 17 18 
3 16 18 19 
3 20 21 22 
3 22 21 23 
3 24 25 26 
3 24 26 27 
3 28 29 30 
3 28 30 31 
3 32 33 34 
3 32 34 35 
3 36 37 38 
3 36 38 39 
3 40 41 42 
3 40 42 43 
3 44 45 46 
3 44 46 47 
3 48 49 50 
3 48 50 51 
3 52 53 54 
3 52 54 55 
3 56 57 58 
3 56 58 59 
3 60 61 62 
3 60 62 63 
3 64 65 66 
3 64 66 67 
3 68 69 70 
3 68 70 71 
3 72 73 74 
3 72 74 75 
3 76 77 78 
3 76 78 79 
3 80 81 82 
3 80 82 83 
3 84 85 86 
3 84 86 87 
3 88 89 90 
3 88 90 91 
3 92 93 94 
3 92 94 95 
3 96 97 98 
3 96 98 99 
3 100 101 102 
3 100 102 103 
3 104 105 106 
3 104 106 107 
3 108 109 110 
3 108 110 111 
3 112 113 114 
3 112 114 115 
3 116 117 118 
3 116 118 119 
3 120 121 122 
3 120 122 123 
3 124 125 126 
3 124 126 127 
3 128 129 130 
3 128 130 131 
3 132 133 134 
3 132 134 135 
3 136 137 138 
3 136 138 139 
3 140 141 142 
3 140 142 143 
3 144 145 146 
3 144 146 147 
3 148 149 150 
3 148 150 151 
3 152 153 154 
3 152 154 155 
3 156 157 158 
3 156 158 159 
3 160 161 162 
3 160 162 163 
3 164 165 166 
3 164 166 167 
3 168 169 170 
3 168 170 171 
3 172 173 174 
3 172 174 175 
3 176 177 178 
3 176 178 179 
3 180 181 182 
3 180 182 183 
3 184 185 186 
3 184 186 187 
3 188 189 190 
3 188 190 191 
