ply
format ascii 1.0
comment VCGLIB generated
element vertex 141
property float x
property float y
property float z
property float nx
property float ny
property float nz
element face 68
property list uchar int vertex_indices
end_header
132.8203 9.423203 124.6063 0.952023 0.3060266 4.023749e-08 
132.8203 9.423187 -93.75981 0.952023 0.3060266 4.023749e-08 
123.8753 37.25027 -93.75981 0.952023 0.3060266 4.023749e-08 
123.8753 37.25027 124.6063 0.952023 0.3060266 4.023749e-08 
123.8753 37.25027 124.6063 0.8065639 0.591147 1.77604e-08 
123.8753 37.25027 -93.75981 0.8065639 0.591147 1.77604e-08 
107.3041 59.8602 -93.75981 0.8065639 0.591147 1.77604e-08 
107.304 59.8602 124.6063 0.8065639 0.591147 1.77604e-08 
107.304 59.8602 124.6063 0.5512187 0.8343608 -7.781107e-08 
107.3041 59.8602 -93.75981 0.5512187 0.8343608 -7.781107e-08 
85.10522 74.5258 -93.7598 0.5512187 0.8343608 -7.781107e-08 
85.10521 74.5258 124.6063 0.5512187 0.8343608 -7.781107e-08 
85.10521 74.5258 124.6063 0.1932147 0.9811566 -1.087217e-07 
85.10522 74.5258 -93.7598 0.1932147 0.9811566 -1.087217e-07 
59.95639 79.4782 -93.7598 0.1932147 0.9811566 -1.087217e-07 
59.95634 79.4782 124.6062 0.1932147 0.9811566 -1.087217e-07 
59.95634 79.4782 124.6062 -0.209039 0.9779073 -1.345691e-07 
59.95639 79.4782 -93.7598 -0.209039 0.9779073 -1.345691e-07 
34.8908 74.12019 -93.7598 -0.209039 0.9779073 -1.345691e-07 
34.89079 74.12019 124.6062 -0.209039 0.9779073 -1.345691e-07 
34.89079 74.12019 124.6062 -0.5646257 0.825347 -1.291167e-07 
34.8908 74.12019 -93.7598 -0.5646258 0.8253471 -1.291168e-07 
12.9318 59.0979 -93.7598 -0.5646257 0.825347 -1.291167e-07 
12.93179 59.0979 124.6062 -0.5646258 0.8253471 -1.291168e-07 
12.93179 59.0979 124.6062 -0.8160076 0.5780413 -8.84692e-08 
12.9318 59.0979 -93.7598 -0.8160075 0.5780413 -8.846919e-08 
-3.272079 36.22325 -93.7598 -0.8160076 0.5780413 -8.84692e-08 
-3.272099 36.22325 124.6062 -0.8160075 0.5780413 -8.846919e-08 
-3.272099 36.22325 124.6062 -0.9568423 0.2906077 -8.871979e-08 
-3.272079 36.22325 -93.7598 -0.9568423 0.2906077 -8.871979e-08 
-11.76638 8.25528 -93.7598 -0.9568423 0.2906077 -8.871979e-08 
-11.7664 8.25531 124.6062 -0.9568423 0.2906077 -8.871979e-08 
-11.7664 8.25531 124.6062 -1.321039e-07 2.106235e-09 1 
132.8203 9.423203 124.6063 -1.203786e-07 -5.274658e-08 1 
123.8753 37.25027 124.6063 -1.582894e-07 -5.888844e-08 1 
107.304 59.8602 124.6063 4.371139e-08 0 1 
85.10521 74.5258 124.6063 -1.911677e-07 -2.442966e-07 1 
85.10521 74.5258 124.6063 -4.485969e-07 2.303072e-06 1 
59.95634 79.4782 124.6062 -4.485969e-07 2.303072e-06 1 
34.89079 74.12019 124.6062 -4.485969e-07 2.303072e-06 1 
34.89079 74.12019 124.6062 -1.757463e-07 -9.955156e-08 1 
12.93179 59.0979 124.6062 4.371139e-08 0 1 
-3.272099 36.22325 124.6062 -8.167383e-08 8.229916e-08 1 
107.3041 59.8602 -93.75981 -4.371139e-08 0 -1 
123.8753 37.25027 -93.75981 -4.371139e-08 0 -1 
132.8203 9.423187 -93.75981 -4.371139e-08 0 -1 
132.8203 9.423187 -93.75981 -4.371139e-08 0 -1 
-11.76638 8.25528 -93.7598 -4.371139e-08 0 -1 
-3.272079 36.22325 -93.7598 -4.371139e-08 0 -1 
12.9318 59.0979 -93.7598 -4.371139e-08 0 -1 
34.8908 74.12019 -93.7598 -4.371139e-08 0 -1 
59.95639 79.4782 -93.7598 -4.371139e-08 0 -1 
85.10522 74.5258 -93.7598 -4.371139e-08 0 -1 
107.3041 59.8602 -93.75981 -4.371139e-08 0 -1 
124.7251 5.914719 114.6065 -0.9589284 -0.2836482 -5.64716e-08 
116.8731 32.45998 113.6929 -0.9589284 -0.2836482 -5.64716e-08 
116.8731 32.45996 -82.84641 -0.9589284 -0.2836482 -5.64716e-08 
124.7251 5.914719 -83.76007 -0.9589284 -0.2836482 -5.64716e-08 
116.8731 32.45998 113.6929 -0.806565 -0.5911454 8.975081e-09 
102.137 52.566 113.6929 -0.806565 -0.5911454 8.975081e-09 
102.137 52.566 -82.84641 -0.806565 -0.5911454 8.975081e-09 
116.8731 32.45996 -82.84641 -0.806565 -0.5911454 8.975081e-09 
102.137 52.566 113.6929 -0.5512179 -0.8343614 3.349841e-09 
82.39665 65.6074 113.6929 -0.5512178 -0.8343613 3.349841e-09 
82.39666 65.6074 -82.84641 -0.5512179 -0.8343614 3.349841e-09 
102.137 52.566 -82.84641 -0.5512178 -0.8343613 3.349841e-09 
82.39665 65.6074 113.6929 -0.1932121 -0.981157 7.185832e-08 
60.03282 70.0114 113.6929 -0.1932121 -0.981157 7.185832e-08 
60.03284 70.0114 -82.84641 -0.1932121 -0.981157 7.185832e-08 
82.39666 65.6074 -82.84641 -0.1932121 -0.981157 7.185832e-08 
60.03282 70.0114 113.6929 0.2090356 -0.977908 1.073104e-07 
37.74306 65.2467 113.6928 0.2090356 -0.977908 1.073104e-07 
37.74307 65.2467 -82.84641 0.2090356 -0.977908 1.073104e-07 
60.03284 70.0114 -82.84641 0.2090356 -0.977908 1.073104e-07 
37.74306 65.2467 113.6928 0.564625 -0.8253476 4.697409e-08 
18.21596 51.8882 113.6928 0.564625 -0.8253476 4.697409e-08 
18.21597 51.8882 -82.84644 0.564625 -0.8253476 4.697409e-08 
37.74307 65.2467 -82.84641 0.564625 -0.8253476 4.697409e-08 
18.21596 51.8882 113.6928 0.8160084 -0.57804 9.885809e-08 
3.80657 31.54668 113.6928 0.8160084 -0.57804 9.885809e-08 
3.806589 31.54667 -82.84644 0.8160084 -0.57804 9.885809e-08 
18.21597 51.8882 -82.84644 0.8160084 -0.57804 9.885809e-08 
3.80657 31.54668 113.6928 0.9633853 -0.2681209 1.066934e-07 
-3.615601 4.878067 114.6065 0.9633853 -0.2681209 1.066934e-07 
-3.615589 4.878052 -83.76009 0.9633853 -0.2681209 1.066934e-07 
3.806589 31.54667 -82.84644 0.9633853 -0.2681209 1.066934e-07 
116.8731 32.45998 113.6929 0.0002771459 -0.03431682 -0.9994109 
124.7251 5.914719 114.6065 0.0002771459 -0.03431682 -0.9994109 
-3.615601 4.878067 114.6065 0.0002771459 -0.03431682 -0.9994109 
-3.615601 4.878067 114.6065 0.07928732 -0.05616519 -0.9952683 
3.80657 31.54668 113.6928 0.07928732 -0.05616519 -0.9952683 
18.21596 51.8882 113.6928 0.07928732 -0.05616519 -0.9952683 
18.21596 51.8882 113.6928 1.508448e-06 -2.268887e-06 -1 
37.74306 65.2467 113.6928 1.508448e-06 -2.268887e-06 -1 
60.03282 70.0114 113.6929 1.508448e-06 -2.268887e-06 -1 
60.03282 70.0114 113.6929 -4.371139e-08 0 -1 
82.39665 65.6074 113.6929 -4.371139e-08 0 -1 
102.137 52.566 113.6929 -4.371139e-08 0 -1 
102.137 52.566 113.6929 -0.006493351 -0.004759058 -0.9999676 
116.8731 32.45998 113.6929 -0.006493351 -0.004759058 -0.9999676 
-3.615601 4.878067 114.6065 -0.006493351 -0.004759058 -0.9999676 
-3.615601 4.878067 114.6065 0.01054303 -0.02432539 -0.9996485 
18.21596 51.8882 113.6928 0.01054303 -0.02432539 -0.9996485 
60.03282 70.0114 113.6929 0.01054303 -0.02432539 -0.9996485 
-3.615601 4.878067 114.6065 -0.004136889 -0.009984242 -0.9999416 
60.03282 70.0114 113.6929 -0.004136889 -0.009984242 -0.9999416 
102.137 52.566 113.6929 -0.004136889 -0.009984242 -0.9999416 
124.7251 5.914719 -83.76007 -0.0783681 -0.05743734 0.9952685 
116.8731 32.45996 -82.84641 -0.0783681 -0.05743734 0.9952685 
102.137 52.566 -82.84641 -0.0783681 -0.05743734 0.9952685 
102.137 52.566 -82.84641 4.371139e-08 0 1 
82.39666 65.6074 -82.84641 4.371139e-08 0 1 
60.03284 70.0114 -82.84641 3.205138e-07 -1.294938e-06 1 
37.74307 65.2467 -82.84641 5.97316e-07 -2.589876e-06 1 
18.21597 51.8882 -82.84644 5.97316e-07 -2.589876e-06 1 
18.21597 51.8882 -82.84644 0.07928552 -0.05616383 0.9952685 
3.806589 31.54667 -82.84644 0.07928552 -0.05616383 0.9952685 
-3.615589 4.878052 -83.76009 0.07928552 -0.05616383 0.9952685 
-3.615589 4.878052 -83.76009 0.00015736 -0.01950493 0.9998098 
124.7251 5.914719 -83.76007 0.0001574112 -0.01950504 0.9998098 
102.137 52.566 -82.84641 0.00015736 -0.01950493 0.9998098 
102.137 52.566 -82.84641 -2.343115e-07 -6.710067e-07 1 
60.03284 70.0114 -82.84641 -2.343115e-07 -6.710067e-07 1 
18.21597 51.8882 -82.84644 -2.343115e-07 -6.710067e-07 1 
18.21597 51.8882 -82.84644 0.0001573088 -0.01950481 0.9998098 
132.8203 9.423187 -93.75981 0.3976601 -0.9175328 9.057973e-08 
132.8203 9.423203 124.6063 0.3976601 -0.9175328 9.057973e-08 
124.7251 5.914719 114.6065 0.3976601 -0.9175328 9.057973e-08 
124.7251 5.914719 -83.76007 0.3976601 -0.9175328 9.057973e-08 
-11.7664 8.25531 124.6062 -0.382787 -0.9238366 8.861731e-08 
-11.76638 8.25528 -93.7598 -0.382787 -0.9238366 8.86173e-08 
-3.615589 4.878052 -83.76009 -0.382787 -0.9238366 8.861731e-08 
-3.615601 4.878067 114.6065 -0.382787 -0.9238366 8.86173e-08 
132.8203 9.423203 124.6063 0.007637141 -0.9454937 0.3255509 
-11.7664 8.25531 124.6062 0.007637141 -0.9454937 0.3255509 
-3.615601 4.878067 114.6065 0.007637141 -0.9454937 0.3255509 
124.7251 5.914719 114.6065 0.007637141 -0.9454937 0.3255509 
-11.76638 8.25528 -93.7598 0.007637262 -0.9454942 -0.3255493 
132.8203 9.423187 -93.75981 0.007637262 -0.9454942 -0.3255493 
124.7251 5.914719 -83.76007 0.007637262 -0.9454942 -0.3255493 
-3.615589 4.878052 -83.76009 0.007637262 -0.9454942 -0.3255493 
3 0 1 2 
3 0 2 3 
3 4 5 6 
3 4 6 7 
3 8 9 10 
3 8 10 11 
3 12 13 14 
3 12 14 15 
3 16 17 18 
3 16 18 19 
3 20 21 22 
3 20 22 23 
3 24 25 26 
3 24 26 27 
3 28 29 30 
3 28 30 31 
3 32 33 34 
3 34 35 36 
3 37 38 39 
3 40 41 42 
3 42 32 34 
3 34 36 40 
3 34 40 42 
3 43 44 45 
3 46 47 48 
3 48 49 50 
3 50 51 52 
3 52 53 46 
3 46 48 50 
3 46 50 52 
3 54 55 56 
3 54 56 57 
3 58 59 60 
3 58 60 61 
3 62 63 64 
3 62 64 65 
3 66 67 68 
3 66 68 69 
3 70 71 72 
3 70 72 73 
3 74 75 76 
3 74 76 77 
3 78 79 80 
3 78 80 81 
3 82 83 84 
3 82 84 85 
3 86 87 88 
3 89 90 91 
3 92 93 94 
3 95 96 97 
3 98 99 100 
3 101 102 103 
3 104 105 106 
3 107 108 109 
3 110 111 112 
3 112 113 114 
3 115 116 117 
3 118 119 120 
3 121 122 123 
3 120 124 118 
3 125 126 127 
3 125 127 128 
3 129 130 131 
3 129 131 132 
3 133 134 135 
3 133 135 136 
3 137 138 139 
3 137 139 140 
