ply
format ascii 1.0
comment VCGLIB generated
element vertex 24
property float x
property float y
property float z
property float nx
property float ny
property float nz
property float texture_u
property float texture_v
element face 12
property list uchar int vertex_indices
end_header
99.99999 -0.9999996 10 0 4.371139e-08 1 100.000000 -10.000000
99.99999 1 10 0 4.371139e-08 1 100.000000 -10.000000
-99.99999 1 10 0 4.371139e-08 1 -100.000015 -10.000000
-99.99995 -0.9999996 10 0 4.371139e-08 1 -99.999962 -10.000000
99.99999 -1 -10 0 -4.371139e-08 -1 100.000046 10.000000
-99.99998 -1 -10 0 -4.371139e-08 -1 -99.999992 10.000000
-99.99999 0.9999986 -10 0 -4.371139e-08 -1 -100.000038 10.000000
99.99992 0.9999996 -10 0 -4.371139e-08 -1 99.999931 10.000000
99.99999 -0.9999996 10 0.9999999 2.861023e-05 -5.722057e-07 100.000000 -10.000000
99.99999 -1 -10 0.9999999 2.861023e-05 -5.722057e-07 100.000046 10.000000
99.99992 0.9999996 -10 0.9999999 2.861023e-05 -5.722057e-07 99.999931 10.000000
99.99999 1 10 0.9999999 2.861023e-05 -5.722057e-07 100.000000 -10.000000
99.99999 1 10 -2.533198e-09 1 -6.904336e-08 100.000000 -10.000000
99.99992 0.9999996 -10 -2.533198e-09 1 -6.904336e-08 99.999931 10.000000
-99.99999 0.9999986 -10 -2.533198e-09 1 -6.904336e-08 -100.000038 10.000000
-99.99999 1 10 -2.533198e-09 1 -6.904336e-08 -100.000015 -10.000000
-99.99999 1 10 -0.9999999 -2.479554e-05 1.335146e-06 -100.000015 -10.000000
-99.99999 0.9999986 -10 -0.9999999 -2.479554e-05 1.335146e-06 -100.000038 10.000000
-99.99998 -1 -10 -0.9999999 -2.479554e-05 1.335146e-06 -99.999992 10.000000
-99.99995 -0.9999996 10 -0.9999999 -2.479554e-05 1.335146e-06 -99.999962 -10.000000
99.99999 -1 -10 0 -1 4.371139e-08 100.000046 10.000000
99.99999 -0.9999996 10 0 -1 4.371139e-08 100.000000 -10.000000
-99.99995 -0.9999996 10 0 -1 4.371139e-08 -99.999962 -10.000000
-99.99998 -1 -10 0 -1 4.371139e-08 -99.999992 10.000000
3 0 1 2 
3 0 2 3 
3 4 5 6 
3 4 6 7 
3 8 9 10 
3 8 10 11 
3 12 13 14 
3 12 14 15 
3 16 17 18 
3 16 18 19 
3 20 21 22 
3 20 22 23 
